<?xml version="1.0" encoding="UTF-8"?>
<svg width="79px" height="78px" viewBox="0 0 79 78" version="1.1" xmlns="http://www.w3.org/2000/svg" xmlns:xlink="http://www.w3.org/1999/xlink">
    <title>SHAPE</title>
    <g id="Page-1" stroke="none" stroke-width="1" fill="none" fill-rule="evenodd">
        <g id="SHAPE" transform="translate(-1, -1)" fill="#000000">
            <path d="M79.0614121,42.2055319 C77.9160514,62.7185453 60.8930945,79 40.0614121,79 C19.2297297,79 2.20677285,62.7185453 1.06141212,42.2055319 L79.0614121,42.2055319 Z M40.0614121,1 C61.6344343,1 79.1228242,18.4608948 79.1228242,40 C79.1228242,40.0685639 79.1228242,40.1370865 79.1228242,40.2055674 L1.002,40.205 L1,40 C1,18.6762858 18.1403709,1.34962572 39.4154602,1.00522489 L40.0614121,1 Z M52.0614121,10 C45.9862799,10 41.0614121,14.9248678 41.0614121,21 C41.0614121,27.0751322 45.9862799,32 52.0614121,32 C58.1365444,32 63.0614121,27.0751322 63.0614121,21 C63.0614121,14.9248678 58.1365444,10 52.0614121,10 Z M52.0614121,12 C57.0319749,12 61.0614121,16.0294373 61.0614121,21 C61.0614121,25.9705627 57.0319749,30 52.0614121,30 C47.0908494,30 43.0614121,25.9705627 43.0614121,21 C43.0614121,16.0294373 47.0908494,12 52.0614121,12 Z"></path>
        </g>
    </g>
</svg>