<?xml version="1.0" encoding="UTF-8"?>
<svg width="3300px" height="2200px" viewBox="0 0 3300 2200" version="1.1" xmlns="http://www.w3.org/2000/svg" xmlns:xlink="http://www.w3.org/1999/xlink">
    <title>custom.shippingbox.fill</title>
    <g id="Page-1" stroke="none" stroke-width="1" fill="none" fill-rule="evenodd">
        <g id="custom.shippingbox.fill">
            <g id="Notes">
                <rect id="artboard" fill="#FFFFFF" fill-rule="nonzero" x="0" y="0" width="3300" height="2200"></rect>
                <line x1="263" y1="292" x2="3036" y2="292" id="Path" stroke="#000000" stroke-width="0.5"></line>
                <text id="Weight/Scale-Variations" fill="#000000" fill-rule="nonzero" font-family="Helvetica" font-size="13" font-weight="normal">
                    <tspan x="263" y="322">Weight/Scale Variations</tspan>
                </text>
                <text id="Ultralight" fill="#000000" fill-rule="nonzero" font-family="Helvetica" font-size="13" font-weight="normal">
                    <tspan x="533.711" y="322">Ultralight</tspan>
                </text>
                <text id="Thin" fill="#000000" fill-rule="nonzero" font-family="Helvetica" font-size="13" font-weight="normal">
                    <tspan x="843.422" y="322">Thin</tspan>
                </text>
                <text id="Light" fill="#000000" fill-rule="nonzero" font-family="Helvetica" font-size="13" font-weight="normal">
                    <tspan x="1138.63" y="322">Light</tspan>
                </text>
                <text id="Regular" fill="#000000" fill-rule="nonzero" font-family="Helvetica" font-size="13" font-weight="normal">
                    <tspan x="1426.84" y="322">Regular</tspan>
                </text>
                <text id="Medium" fill="#000000" fill-rule="nonzero" font-family="Helvetica" font-size="13" font-weight="normal">
                    <tspan x="1723.06" y="322">Medium</tspan>
                </text>
                <text id="Semibold" fill="#000000" fill-rule="nonzero" font-family="Helvetica" font-size="13" font-weight="normal">
                    <tspan x="2015.77" y="322">Semibold</tspan>
                </text>
                <text id="Bold" fill="#000000" fill-rule="nonzero" font-family="Helvetica" font-size="13" font-weight="normal">
                    <tspan x="2326.48" y="322">Bold</tspan>
                </text>
                <text id="Heavy" fill="#000000" fill-rule="nonzero" font-family="Helvetica" font-size="13" font-weight="normal">
                    <tspan x="2618.19" y="322">Heavy</tspan>
                </text>
                <text id="Black" fill="#000000" fill-rule="nonzero" font-family="Helvetica" font-size="13" font-weight="normal">
                    <tspan x="2917.4" y="322">Black</tspan>
                </text>
                <line x1="263" y1="1903" x2="3036" y2="1903" id="Path" stroke="#000000" stroke-width="0.5"></line>
                <g id="Group" transform="translate(264.3672, 1918.0684)" fill="#000000" fill-rule="nonzero">
                    <path d="M7.88088,15.76172 C12.18752,15.76172 15.7715,12.1875 15.7715,7.88086 C15.7715,3.57422 12.17774,0 7.8711,0 C3.57422,0 0,3.57422 0,7.88086 C0,12.1875 3.58398,15.76172 7.88086,15.76172 L7.88088,15.76172 Z M7.88088,14.277344 C4.33596,14.277344 1.50392,11.435544 1.50392,7.880864 C1.50392,4.326184 4.32618,1.484384 7.8711,1.484384 C11.42578,1.484384 14.27734,4.326184 14.27734,7.880864 C14.27734,11.435544 11.43554,14.277344 7.88086,14.277344 L7.88088,14.277344 Z M4.28712,7.880864 C4.28712,8.310552 4.589854,8.60352 5.039074,8.60352 L7.138674,8.60352 L7.138674,10.72266 C7.138674,11.162114 7.431642,11.464848 7.86133,11.464848 C8.310548,11.464848 8.603518,11.162114 8.603518,10.72266 L8.603518,8.60352 L10.722658,8.60352 C11.162112,8.60352 11.464846,8.310552 11.464846,7.880864 C11.464846,7.44141 11.162112,7.138676 10.722658,7.138676 L8.603518,7.138676 L8.603518,5.029296 C8.603518,4.580078 8.31055,4.277342 7.86133,4.277342 C7.431642,4.277342 7.138674,4.580076 7.138674,5.029296 L7.138674,7.138676 L5.039074,7.138676 C4.589856,7.138676 4.28712,7.44141 4.28712,7.880864 Z" id="Shape"></path>
                </g>
                <g id="Group" transform="translate(283.254, 1915.9883)" fill="#000000" fill-rule="nonzero">
                    <path d="M9.96094,19.92188 C15.41016,19.92188 19.92188,15.4004 19.92188,9.96094 C19.92188,4.51172 15.4004,0 9.95118,0 C4.51172,0 0,4.51172 0,9.96094 C0,15.4004 4.52148,19.92188 9.96094,19.92188 Z M9.96094,18.261724 C5.35156,18.261724 1.66992,14.570324 1.66992,9.960944 C1.66992,5.351564 5.3418,1.660164 9.95116,1.660164 C14.56052,1.660164 18.2617,5.351564 18.2617,9.960944 C18.2617,14.570324 14.5703,18.261724 9.96092,18.261724 L9.96094,18.261724 Z M5.4297,9.960944 C5.4297,10.43946 5.761732,10.761726 6.259778,10.761726 L9.130878,10.761726 L9.130878,13.642586 C9.130878,14.130868 9.46291,14.472664 9.941424,14.472664 C10.4297,14.472664 10.771502,14.140632 10.771502,13.642586 L10.771502,10.761726 L13.652362,10.761726 C14.140644,10.761726 14.48244,10.43946 14.48244,9.960944 C14.48244,9.472662 14.140644,9.130866 13.652362,9.130866 L10.771502,9.130866 L10.771502,6.259766 C10.771502,5.76172 10.4297,5.419922 9.941424,5.419922 C9.462908,5.419922 9.130878,5.761718 9.130878,6.259766 L9.130878,9.130866 L6.259778,9.130866 C5.761732,9.130866 5.4297,9.472662 5.4297,9.960944 Z" id="Shape"></path>
                </g>
                <g id="Group" transform="translate(307.1798, 1913.2246)" fill="#000000" fill-rule="nonzero">
                    <path d="M12.71486,25.43944 C19.67776,25.43944 25.43946,19.67772 25.43946,12.7246 C25.43946,5.7617 19.66798,0 12.70508,0 C5.75196,0 -1.42108547e-15,5.76172 -1.42108547e-15,12.7246 C-1.42108547e-15,19.67772 5.76172,25.43944 12.71484,25.43944 L12.71486,25.43944 Z M12.71486,23.623034 C6.6797,23.623034 1.82618,18.759754 1.82618,12.724594 C1.82618,6.679674 6.66994,1.826154 12.70508,1.826154 C18.75,1.826154 23.61328,6.679674 23.61328,12.724594 C23.61328,18.759754 18.75976,23.623034 12.71484,23.623034 L12.71486,23.623034 Z M6.94338,12.724594 C6.94338,13.242172 7.314474,13.6035 7.861348,13.6035 L11.806668,13.6035 L11.806668,17.55858 C11.806668,18.09569 12.177762,18.476548 12.69534,18.476548 C13.23245,18.476548 13.603544,18.105454 13.603544,17.55858 L13.603544,13.6035 L17.558624,13.6035 C18.095734,13.6035 18.476592,13.242172 18.476592,12.724594 C18.476592,12.177718 18.105498,11.806626 17.558624,11.806626 L13.603544,11.806626 L13.603544,7.861306 C13.603544,7.31443 13.23245,6.933572 12.69534,6.933572 C12.177762,6.933572 11.806668,7.314432 11.806668,7.861306 L11.806668,11.806626 L7.861348,11.806626 C7.314472,11.806626 6.94338,12.17772 6.94338,12.724594 Z" id="Shape"></path>
                </g>
                <text id="Design-Variations" fill="#000000" fill-rule="nonzero" font-family="Helvetica" font-size="13" font-weight="normal">
                    <tspan x="263" y="1953">Design Variations</tspan>
                </text>
                <text id="Symbols-are-supported-in-up-to-nine-weights-and-three-scales." fill="#000000" fill-rule="nonzero" font-family="Helvetica" font-size="13" font-weight="normal">
                    <tspan x="263" y="1971">Symbols are supported in up to nine weights and three scales.</tspan>
                </text>
                <text id="For-optimal-layout-with-text-and-other-symbols,-vertically-align" fill="#000000" fill-rule="nonzero" font-family="Helvetica" font-size="13" font-weight="normal">
                    <tspan x="263" y="1989">For optimal layout with text and other symbols, vertically align</tspan>
                </text>
                <text id="symbols-with-the-adjacent-text." fill="#000000" fill-rule="nonzero" font-family="Helvetica" font-size="13" font-weight="normal">
                    <tspan x="263" y="2007">symbols with the adjacent text.</tspan>
                </text>
                <line x1="776" y1="1919" x2="776" y2="1933" id="Path" stroke="#00AEEF" stroke-width="0.5"></line>
                <g id="Group" transform="translate(778.4902, 1918.7324)" fill="#000000" fill-rule="nonzero">
                    <path d="M0.8203116,14.423832 C1.3378896,14.423832 1.5917956,14.2285116 1.7773436,13.681636 L3.0371096,10.234376 L8.7988296,10.234376 L10.0585956,13.681636 C10.2441424,14.228512 10.4980496,14.423832 11.0058616,14.423832 C11.5234396,14.423832 11.8554716,14.111324 11.8554716,13.623042 C11.8554716,13.4570264 11.8261748,13.300776 11.7480498,13.095698 L7.1679698,0.898438 C6.9433598,0.302734 6.5429698,0 5.9179698,0 C5.3125018,0 4.9023458,0.292968 4.6875018,0.888672 L0.1074218,13.105472 C0.0292968,13.31055 -3.55271368e-16,13.4668 -3.55271368e-16,13.632816 C-3.55271368e-16,14.121098 0.3125,14.423832 0.820312,14.423832 L0.8203116,14.423832 Z M3.5156316,8.750004 L5.8886716,2.177744 L5.9374998,2.177744 L8.3105398,8.750004 L3.5156316,8.750004 Z" id="Shape"></path>
                </g>
                <line x1="792.836" y1="1919" x2="792.836" y2="1933" id="Path" stroke="#00AEEF" stroke-width="0.5"></line>
                <text id="Margins" fill="#000000" fill-rule="nonzero" font-family="Helvetica" font-size="13" font-weight="normal">
                    <tspan x="776" y="1953">Margins</tspan>
                </text>
                <text id="Leading-and-trailing-margins-on-the-left-and-right-side-of-each-symbol" fill="#000000" fill-rule="nonzero" font-family="Helvetica" font-size="13" font-weight="normal">
                    <tspan x="776" y="1971">Leading and trailing margins on the left and right side of each symbol</tspan>
                </text>
                <text id="can-be-adjusted-by-modifying-the-x-location-of-the-margin-guidelines." fill="#000000" fill-rule="nonzero" font-family="Helvetica" font-size="13" font-weight="normal">
                    <tspan x="776" y="1989">can be adjusted by modifying the x-location of the margin guidelines.</tspan>
                </text>
                <text id="Modifications-are-automatically-applied-proportionally-to-all" fill="#000000" fill-rule="nonzero" font-family="Helvetica" font-size="13" font-weight="normal">
                    <tspan x="776" y="2007">Modifications are automatically applied proportionally to all</tspan>
                </text>
                <text id="scales-and-weights." fill="#000000" fill-rule="nonzero" font-family="Helvetica" font-size="13" font-weight="normal">
                    <tspan x="776" y="2025">scales and weights.</tspan>
                </text>
                <g id="Group" transform="translate(1291.2481, 1914.5174)" fill="#000000" fill-rule="nonzero">
                    <path d="M0.593687825,20.3477978 L2.29290583,22.0567818 C3.15228183,22.9259218 4.13860983,22.8673278 5.06634583,21.8419378 L15.7597058,10.0548378 L14.7929098,9.07827578 L4.17766983,20.7579558 C3.82610783,21.1583458 3.49407583,21.2560018 3.02532583,20.7872526 L1.85344983,19.6251426 C1.38469983,19.1661586 1.49212183,18.8243606 1.89251223,18.4630326 L13.3671122,7.66225258 L12.3905502,6.69545658 L0.798750225,17.5841366 C-0.187577775,18.5021046 -0.265703775,19.4786686 0.593672225,20.3478166 L0.593687825,20.3477978 Z M7.00970783,2.15443778 C6.58978583,2.56459378 6.56048983,3.14076578 6.79486383,3.53139178 C7.02923983,3.89271978 7.48822383,4.12709578 8.13275383,3.96107978 C9.59759783,3.61928378 11.1210338,3.56068978 12.5468138,4.49818978 L11.9608758,5.95326778 C11.6190798,6.78334578 11.7948602,7.36928378 12.3319698,7.91615778 L14.6268898,10.2306178 C15.1151718,10.7188998 15.5253278,10.7384298 16.0917338,10.6407738 L17.1561878,10.4454614 L17.8202498,11.1192894 L17.7811874,11.6759294 C17.742125,12.1739754 17.869078,12.5548354 18.3573594,13.0333514 L19.1190774,13.7755394 C19.5975934,14.2540554 20.2128274,14.2833514 20.6815774,13.8146018 L23.5917374,10.8946818 C24.0604874,10.4259318 24.0409554,9.83022778 23.5624406,9.35171378 L22.7909566,8.58999578 C22.3124406,8.11147978 21.9413466,7.95522978 21.4628326,7.99429178 L20.8866606,8.04311998 L20.2421286,7.40835398 L20.4862686,6.28530798 C20.6132218,5.71890198 20.4569718,5.27944798 19.8710346,4.69351198 L17.6737746,2.50601198 C14.3339346,-0.814308021 9.90033463,-0.736168021 7.00971463,2.15444998 L7.00970783,2.15443778 Z M8.50384783,2.52553178 C10.9354878,0.748187779 14.2265078,1.05092178 16.4530678,3.27748578 L18.8847078,5.68958578 C19.1190838,5.92396178 19.1581458,6.10950778 19.0897858,6.45130378 L18.7675198,7.93567978 L20.2714258,9.42005578 L21.2577538,9.36146198 C21.5116598,9.35169636 21.5897858,9.3712276 21.7850978,9.56653998 L22.3612698,10.142712 L19.9198698,12.584112 L19.3436978,12.00794 C19.1483854,11.8126276 19.1190878,11.734502 19.1288538,11.47083 L19.1972132,10.494268 L17.7030732,9.00989198 L16.1796352,9.26379798 C15.8573692,9.33215738 15.7108852,9.30286038 15.4667452,9.06848558 L13.4647852,7.06652558 C13.2108792,6.83214958 13.1815812,6.66613558 13.337832,6.29504158 L14.216738,4.20520158 C12.654238,2.75012358 10.622978,2.12512158 8.59173803,2.72082558 C8.43548803,2.75988798 8.37689403,2.63293498 8.50384743,2.52551318 L8.50384783,2.52553178 Z" id="Shape"></path>
                </g>
                <text id="Exporting" fill="#000000" fill-rule="nonzero" font-family="Helvetica" font-size="13" font-weight="normal">
                    <tspan x="1289" y="1953">Exporting</tspan>
                </text>
                <text id="Symbols-should-be-outlined-when-exporting-to-ensure-the" fill="#000000" fill-rule="nonzero" font-family="Helvetica" font-size="13" font-weight="normal">
                    <tspan x="1289" y="1971">Symbols should be outlined when exporting to ensure the</tspan>
                </text>
                <text id="design-is-preserved-when-submitting-to-Xcode." fill="#000000" fill-rule="nonzero" font-family="Helvetica" font-size="13" font-weight="normal">
                    <tspan x="1289" y="1989">design is preserved when submitting to Xcode.</tspan>
                </text>
                <text id="template-version" fill="#000000" fill-rule="nonzero" font-family="Helvetica" font-size="13" font-weight="normal">
                    <tspan x="2952" y="1933">Template v.5.0</tspan>
                </text>
                <text id="Requires-Xcode-15-or-greater" fill="#000000" fill-rule="nonzero" font-family="Helvetica" font-size="13" font-weight="normal">
                    <tspan x="2865" y="1951">Requires Xcode 15 or greater</tspan>
                </text>
                <text id="descriptive-name" fill="#000000" fill-rule="nonzero" font-family="Helvetica" font-size="13" font-weight="normal">
                    <tspan x="2810" y="1969">Generated from custom.shippingbox.fill</tspan>
                </text>
                <text id="Typeset-at-100.0-points" fill="#000000" fill-rule="nonzero" font-family="Helvetica" font-size="13" font-weight="normal">
                    <tspan x="2901" y="1987">Typeset at 100.0 points</tspan>
                </text>
                <text id="Small" fill="#000000" fill-rule="nonzero" font-family="Helvetica" font-size="13" font-weight="normal">
                    <tspan x="263" y="726">Small</tspan>
                </text>
                <text id="Medium" fill="#000000" fill-rule="nonzero" font-family="Helvetica" font-size="13" font-weight="normal">
                    <tspan x="263" y="1156">Medium</tspan>
                </text>
                <text id="Large" fill="#000000" fill-rule="nonzero" font-family="Helvetica" font-size="13" font-weight="normal">
                    <tspan x="263" y="1586">Large</tspan>
                </text>
            </g>
            <g id="Guides" transform="translate(263, 600.785)">
                <g id="H-reference" transform="translate(76.9937, 24.756)" fill="#27AAE1" fill-rule="nonzero">
                    <path d="M0,70.459 L2.644096,70.459 L28.334446,3.3267 L29.036646,3.3267 L29.036646,0 L27.128946,0 L0,70.459 Z M10.694846,45.9791 L45.987846,45.9791 L45.237846,43.7305 L11.444846,43.7305 L10.694846,45.9791 Z M54.125946,70.459 L56.770046,70.459 L29.644546,0 L28.438946,0 L28.438946,3.3267 L54.125946,70.459 Z" id="Shape"></path>
                </g>
                <line x1="0" y1="95.215" x2="2773" y2="95.215" id="Baseline-S" stroke="#27AAE1" stroke-width="0.5"></line>
                <line x1="0" y1="24.756" x2="2773" y2="24.756" id="Capline-S" stroke="#27AAE1" stroke-width="0.5"></line>
                <g id="H-reference" transform="translate(76.9937, 454.756)" fill="#27AAE1" fill-rule="nonzero">
                    <path d="M0,70.459 L2.644096,70.459 L28.334446,3.3267 L29.036646,3.3267 L29.036646,0 L27.128946,0 L0,70.459 Z M10.694846,45.9791 L45.987846,45.9791 L45.237846,43.7305 L11.444846,43.7305 L10.694846,45.9791 Z M54.125946,70.459 L56.770046,70.459 L29.644546,0 L28.438946,0 L28.438946,3.3267 L54.125946,70.459 Z" id="Shape"></path>
                </g>
                <line x1="0" y1="525.215" x2="2773" y2="525.215" id="Baseline-M" stroke="#27AAE1" stroke-width="0.5"></line>
                <line x1="0" y1="454.755" x2="2773" y2="454.755" id="Capline-M" stroke="#27AAE1" stroke-width="0.5"></line>
                <g id="H-reference" transform="translate(76.9937, 884.756)" fill="#27AAE1" fill-rule="nonzero">
                    <path d="M0,70.459 L2.644096,70.459 L28.334446,3.3267 L29.036646,3.3267 L29.036646,0 L27.128946,0 L0,70.459 Z M10.694846,45.9791 L45.987846,45.9791 L45.237846,43.7305 L11.444846,43.7305 L10.694846,45.9791 Z M54.125946,70.459 L56.770046,70.459 L29.644546,0 L28.438946,0 L28.438946,3.3267 L54.125946,70.459 Z" id="Shape"></path>
                </g>
                <line x1="0" y1="955.215" x2="2773" y2="955.215" id="Baseline-L" stroke="#27AAE1" stroke-width="0.5"></line>
                <line x1="0" y1="884.755" x2="2773" y2="884.755" id="Capline-L" stroke="#27AAE1" stroke-width="0.5"></line>
                <line x1="249.469" y1="1.13686838e-13" x2="249.469" y2="119.336" id="left-margin-Ultralight-S" stroke="#00AEEF" stroke-width="0.5"></line>
                <line x1="343.953" y1="1.13686838e-13" x2="343.953" y2="119.336" id="right-margin-Ultralight-S" stroke="#00AEEF" stroke-width="0.5"></line>
                <line x1="1137.97" y1="1.13686838e-13" x2="1137.97" y2="119.336" id="left-margin-Regular-S" stroke="#00AEEF" stroke-width="0.5"></line>
                <line x1="1235.72" y1="1.13686838e-13" x2="1235.72" y2="119.336" id="right-margin-Regular-S" stroke="#00AEEF" stroke-width="0.5"></line>
                <line x1="2620.01" y1="1.13686838e-13" x2="2620.01" y2="119.336" id="left-margin-Black-S" stroke="#00AEEF" stroke-width="0.5"></line>
                <line x1="2720.79" y1="1.13686838e-13" x2="2720.79" y2="119.336" id="right-margin-Black-S" stroke="#00AEEF" stroke-width="0.5"></line>
            </g>
            <g id="Symbols" transform="translate(520.2346, 619)" stroke="#000000" stroke-width="0.5">
                <g id="Black-S" transform="translate(2370.7654, 0)">
                    <path d="M1.33382973,52.3298777 C15.0563014,55.3507448 28.7782829,56.8605319 42.5002543,56.8605319 C56.2230653,56.8605319 69.9458865,55.3505599 83.6685583,52.3313194 C81.5043894,61.643363 76.2026403,69.7678177 68.9254355,75.5543384 C61.6896666,81.3079112 52.5007108,84.75 42.5002543,84.75 C32.499744,84.75 23.3107433,81.307874 16.0748953,75.5541024 C8.79723532,69.767083 3.49520089,61.641725 1.33382973,52.3298777 Z M42.5,0.25 C54.1666258,0.25 64.7286126,5.04468974 72.3740483,12.7961636 C80.0207217,20.5488924 84.75,31.2592665 84.75,43.0894529 C84.75,43.4462399 84.7456989,43.8020084 84.7368906,44.1572301 C70.657656,47.2192905 56.5788328,48.75 42.5,48.75 C28.4205349,48.75 14.3410793,47.219153 0.263536635,44.1575773 C0.254303414,43.8022129 0.25,43.4463427 0.25,43.0894529 C0.25,31.2592665 4.97927832,20.5488924 12.6259517,12.7961636 C20.2713874,5.04468974 30.8333742,0.25 42.5,0.25 Z M61.4529638,13.6726915 C58.5792308,11.4148999 54.9292409,10.3164106 51.1851379,10.9084155 C47.4409593,11.5004324 44.3095921,13.6712206 42.2753493,16.7050955 C40.2464837,19.7309508 39.3095893,23.6157136 39.9485053,27.6428489 C40.5874107,31.6699175 42.6808889,35.0754767 45.5470362,37.3273085 C48.4207692,39.5851001 52.0707591,40.6835894 55.8148621,40.0915845 C59.5590407,39.4995676 62.6904079,37.3287794 64.7246507,34.2949045 C66.7535163,31.2690492 67.6904107,27.3842864 67.0514947,23.3571511 C66.4125893,19.3300825 64.3191111,15.9245233 61.4529638,13.6726915 Z M53.0139878,24.6814172 C53.6406533,25.2399637 54.1030872,26.0761884 54.2580663,27.0546877 C54.4130453,28.033187 54.2316522,28.971384 53.8082583,29.6962435 C53.3979026,30.3987812 52.7586489,30.9007017 51.9803276,31.0239756 C51.2020063,31.1472496 50.4389379,30.8674351 49.8315704,30.3260889 C49.204905,29.7675425 48.742471,28.9313177 48.587492,27.9528185 C48.4325129,26.9743192 48.613906,26.0361222 49.0373,25.3112627 C49.4476556,24.608725 50.0869093,24.1068045 50.8652306,23.9835305 C51.6435519,23.8602566 52.4066203,24.1400711 53.0139878,24.6814172 Z" id="Shape"></path>
                </g>
                <g id="Regular-S" transform="translate(890.7654, 3)">
                    <path d="M1.30895696,45.3268208 C14.0394135,48.2142775 26.7697459,49.6571787 39.5000667,49.6571787 C52.2311628,49.6571787 64.9622708,48.2141016 77.6918373,45.3298567 C76.110848,54.5465347 71.3386314,62.65876 64.5663221,68.4633358 C57.8082095,74.2557437 49.0581756,77.75 39.5000667,77.75 C29.9418668,77.75 21.1917573,74.255677 14.4336025,68.4629829 C7.66095818,62.6578693 2.88861371,54.5446869 1.30895696,45.3268208 Z M39,0.25 C49.7007447,0.25 59.3885385,4.55299474 66.4010887,11.5102662 C73.4129199,18.4668243 77.75,28.0771723 77.75,38.6925699 C77.75,39.0056896 77.746227,39.317935 77.7386398,39.6297674 C64.8255115,42.3767799 51.91276,43.75 39,43.75 C26.0866594,43.75 13.1733275,42.3766565 0.26186344,39.6300252 C0.253775132,39.3181277 0.25,39.0057865 0.25,38.6925699 C0.25,28.0771723 4.58708015,18.4668243 11.5989113,11.5102662 C18.6114615,4.55299474 28.2992553,0.25 39,0.25 Z M56.8758213,13.4752242 C54.2107287,11.3698017 50.8257062,10.3456937 47.3535069,10.8977352 C43.8814782,11.4497495 40.977501,13.4736177 39.0910706,16.3025671 C37.2103617,19.1229365 36.3417316,22.7438701 36.9339968,26.4975581 C37.5262855,30.2513955 39.4671941,33.4257586 42.1241787,35.5247758 C44.7892713,37.6301983 48.1742938,38.6543063 51.6464931,38.1022648 C55.1185218,37.5502505 58.022499,35.5263823 59.9089294,32.6974329 C61.7896383,29.8770635 62.6582684,26.2561299 62.0660032,22.5024419 C61.4737145,18.7486045 59.5328059,15.5742414 56.8758213,13.4752242 Z M50.8680757,20.8476512 C51.7890111,21.6684802 52.4698687,22.8968382 52.6976754,24.3351535 C52.9254822,25.7734689 52.6575317,27.1521033 52.0353201,28.2173428 C51.4261469,29.2602604 50.4758154,30.0025035 49.3212809,30.1853638 C48.1667465,30.3682241 47.0335618,29.9559776 46.1319243,29.1523488 C45.2109889,28.3315198 44.5301313,27.1031618 44.3023246,25.6648465 C44.0745178,24.2265311 44.3424683,22.8478967 44.9646799,21.7826572 C45.5738531,20.7397396 46.5241846,19.9974965 47.6787191,19.8146362 C48.8332535,19.6317759 49.9664382,20.0440224 50.8680757,20.8476512 Z" id="Shape"></path>
                </g>
                <g id="Ultralight-S" transform="translate(0, 2.8008)">
                    <path d="M0.821605453,45.6631226 C13.5478236,48.5210518 26.2739174,49.9492 39,49.9492 C51.7268579,49.9492 64.4537271,48.5208777 77.1789601,45.6660802 C75.5980009,54.7865211 70.8278726,62.8138883 64.0591218,68.5579995 C57.3029325,74.2914507 48.5553535,77.75 39,77.75 C29.4445556,77.75 20.696901,74.2913847 13.9406695,68.5576501 C7.17158378,62.8130067 2.40132765,54.7846923 0.821605453,45.6631226 Z M39,0.25 C49.700517,0.25 59.388017,4.58724149 66.4003878,11.5996122 C73.4127585,18.611983 77.75,28.299483 77.75,39 C77.75,40.3462574 77.6813559,41.6764815 77.5451059,42.987766 C64.6959842,45.7293031 51.8479964,47.0996 39,47.0996 C26.1506884,47.0996 13.3013856,45.7290227 0.454278702,42.9879764 C0.318657853,41.6767491 0.25,40.3463933 0.25,39 C0.25,28.299483 4.58724149,18.611983 11.5996122,11.5996122 C18.611983,4.58724149 28.299483,0.25 39,0.25 Z M56.6566908,13.6916292 C53.9860129,11.5898169 50.5939069,10.5673865 47.1144061,11.1184853 C43.6349053,11.6695841 40.7247691,13.6901915 38.8342993,16.5144187 C36.9493129,19.3304541 36.0787425,22.9458263 36.6723537,26.6937394 C37.2659648,30.4416525 39.2111378,33.6110549 41.8740692,35.7067708 C44.5447471,37.8085831 47.9368531,38.8310135 51.4163539,38.2799147 C54.8958547,37.7288159 57.8059909,35.7082085 59.6964607,32.8839813 C61.5814471,30.0679459 62.4520175,26.4525737 61.8584063,22.7046606 C61.2647952,18.9567475 59.3196222,15.7873451 56.6566908,13.6916292 Z M52.7520814,16.5716326 C54.6330307,18.2481212 56.0264642,20.7557578 56.491861,23.6941575 C56.9572577,26.6325571 56.4069261,29.4480558 55.1361005,31.6237366 C53.8783131,33.7770954 51.9131346,35.3033566 49.5312585,35.6806087 C47.1493823,36.0578608 44.8087459,35.2135738 42.9470945,33.5542854 C41.0661453,31.8777968 39.6727118,29.3701603 39.207315,26.4317606 C38.7419182,23.493361 39.2922499,20.6778622 40.5630755,18.5021815 C41.8208628,16.3488226 43.7860413,14.8225615 46.1679175,14.4453094 C48.5497936,14.0680572 50.8904301,14.9123443 52.7520814,16.5716326 Z" id="Shape"></path>
                </g>
            </g>
        </g>
    </g>
</svg>